<?xml version="1.0" standalone="no"?><!DOCTYPE svg PUBLIC "-//W3C//DTD SVG 1.1//EN" "http://www.w3.org/Graphics/SVG/1.1/DTD/svg11.dtd"><svg t="1722821060609" class="icon" viewBox="0 0 1024 1024" version="1.1" xmlns="http://www.w3.org/2000/svg" p-id="9417" xmlns:xlink="http://www.w3.org/1999/xlink" width="200" height="200"><path d="M725.333 170.667h74.71c64.81 0 117.29 52.522 117.29 117.429v511.797c0 64.864-52.501 117.44-117.29 117.44H223.957c-64.81 0-117.29-52.522-117.29-117.429V288.107c0-64.864 52.501-117.44 117.29-117.44h74.71v-32a32 32 0 0 1 64 0v32h298.666v-32a32 32 0 0 1 64 0v32z m0 64v32a32 32 0 0 1-64 0v-32H362.667v32a32 32 0 0 1-64 0v-32h-74.71a53.355 53.355 0 0 0-53.29 53.429v511.797a53.301 53.301 0 0 0 53.29 53.44h576.086a53.355 53.355 0 0 0 53.29-53.429V288.107a53.301 53.301 0 0 0-53.29-53.44h-74.71z m-10.666 224a32 32 0 0 1 0 64H309.333a32 32 0 0 1 0-64h405.334z m-128 160a32 32 0 0 1 0 64H309.333a32 32 0 0 1 0-64h277.334z" fill="#FF404F" p-id="9418"></path></svg>