<?xml version="1.0" standalone="no"?><!DOCTYPE svg PUBLIC "-//W3C//DTD SVG 1.1//EN" "http://www.w3.org/Graphics/SVG/1.1/DTD/svg11.dtd"><svg t="1722828201415" class="icon" viewBox="0 0 1024 1024" version="1.1" xmlns="http://www.w3.org/2000/svg" p-id="12364" xmlns:xlink="http://www.w3.org/1999/xlink" width="200" height="200"><path d="M440.070244 831.562927c11.813463 0 23.601951-4.49561 32.593171-13.486829a45.980098 45.980098 0 0 0 0-65.161366l-198.730927-198.730927 589.674146 0.499512c24.001561 0 43.507512-19.431024 43.40761-43.40761 0-24.101463-19.480976-43.63239-43.507512-43.63239l-592.221659-0.574439 201.378342-201.378341a45.980098 45.980098 0 0 0 0-65.161366 45.980098 45.980098 0 0 0-65.186342 0L131.29678 476.734439a45.955122 45.955122 0 0 0-13.53678 33.16761v0.574439c0 13.361951 5.994146 25.300293 15.409951 33.292488l274.307122 274.332097c8.99122 8.966244 20.804683 13.461854 32.593171 13.461854z" p-id="12365"></path></svg>