<?xml version="1.0" standalone="no"?><!DOCTYPE svg PUBLIC "-//W3C//DTD SVG 1.1//EN" "http://www.w3.org/Graphics/SVG/1.1/DTD/svg11.dtd"><svg t="1722846085555" class="icon" viewBox="0 0 1024 1024" version="1.1" xmlns="http://www.w3.org/2000/svg" p-id="27217" xmlns:xlink="http://www.w3.org/1999/xlink" width="200" height="200"><path d="M853.333333 938.666667H170.666667a85.333333 85.333333 0 0 1-85.333334-85.333334V170.666667a85.333333 85.333333 0 0 1 85.333334-85.333334h682.666666a85.333333 85.333333 0 0 1 85.333334 85.333334v682.666666a85.333333 85.333333 0 0 1-85.333334 85.333334z m21.333334-768a21.333333 21.333333 0 0 0-21.333334-21.333334H170.666667a21.333333 21.333333 0 0 0-21.333334 21.333334v682.666666a21.333333 21.333333 0 0 0 21.333334 21.333334h682.666666a21.333333 21.333333 0 0 0 21.333334-21.333334V170.666667z" fill="#bfbfbf" p-id="27218"></path><path d="M405.632 599.253333V424.533333a64.32 64.32 0 0 1 105.536-47.509333l106.282667 87.317333a61.077333 61.077333 0 0 1 0 95.018667l-106.282667 87.317333a64.32 64.32 0 0 1-105.536-47.424z" fill="#bfbfbf" p-id="27219"></path></svg>