<?xml version="1.0" standalone="no"?><!DOCTYPE svg PUBLIC "-//W3C//DTD SVG 1.1//EN" "http://www.w3.org/Graphics/SVG/1.1/DTD/svg11.dtd"><svg t="1723084206653" class="icon" viewBox="0 0 1024 1024" version="1.1" xmlns="http://www.w3.org/2000/svg" p-id="5314" xmlns:xlink="http://www.w3.org/1999/xlink" width="200" height="200"><path d="M920.064 955.392c-10.24 0-20.992-4.096-29.184-11.776L79.36 131.584c-15.872-15.872-15.872-41.984 0-57.856 15.872-15.872 41.984-15.872 57.856 0l811.52 811.52c15.872 15.872 15.872 41.984 0 57.856-7.68 8.192-18.432 12.288-28.672 12.288z" fill="#333333" p-id="5315"></path><path d="M108.544 955.392c-10.24 0-20.992-4.096-29.184-11.776-15.872-15.872-15.872-41.984 0-57.856L890.88 73.728c15.872-15.872 41.984-15.872 57.856 0 15.872 15.872 15.872 41.984 0 57.856L137.216 943.616c-7.68 7.68-18.432 11.776-28.672 11.776z" fill="#333333" p-id="5316"></path></svg>