<?xml version="1.0" standalone="no"?><!DOCTYPE svg PUBLIC "-//W3C//DTD SVG 1.1//EN" "http://www.w3.org/Graphics/SVG/1.1/DTD/svg11.dtd"><svg t="1722932045672" class="icon" viewBox="0 0 1024 1024" version="1.1" xmlns="http://www.w3.org/2000/svg" p-id="5808" xmlns:xlink="http://www.w3.org/1999/xlink" width="200" height="200"><path d="M672.704 864.704 256.704 864.704C239.024 864.704 224.704 850.368 224.704 832.704 224.704 815.024 239.024 800.704 256.704 800.704L672.704 800.704C778.736 800.704 864.704 714.736 864.704 608.704 864.704 502.656 778.736 416.704 672.704 416.704L202.16 416.704 341.792 556.144C353.776 568.112 353.776 587.52 341.792 599.488 329.792 611.472 310.336 611.472 298.352 599.488L104 405.424C92.016 393.456 92.016 374.032 104 362.064L298.352 167.984C310.336 156.016 329.792 156.016 341.792 167.984 353.776 179.968 353.776 199.376 341.792 211.344L200.24 352.704 672.704 352.704C814.08 352.704 928.704 467.312 928.704 608.704 928.704 750.08 814.08 864.704 672.704 864.704Z" p-id="5809" fill="#ffffff"></path></svg>