<?xml version="1.0" standalone="no"?><!DOCTYPE svg PUBLIC "-//W3C//DTD SVG 1.1//EN" "http://www.w3.org/Graphics/SVG/1.1/DTD/svg11.dtd"><svg t="1722931154567" class="icon" viewBox="0 0 1024 1024" version="1.1" xmlns="http://www.w3.org/2000/svg" p-id="22441" xmlns:xlink="http://www.w3.org/1999/xlink" width="200" height="200"><path d="M894.7712 480.768a384 384 0 1 0-149.504 336.3328 25.6 25.6 0 0 1 31.0784 40.6528 435.2 435.2 0 1 1 169.2672-382.976l25.9072-25.856a25.6 25.6 0 0 1 36.1984 36.1984l-72.3968 72.3968a25.4976 25.4976 0 0 1-36.1984 0l-72.448-72.3968a25.6 25.6 0 1 1 36.2496-36.1984l31.8464 31.8464zM640 358.4a25.6 25.6 0 0 1 25.6 25.6v256a25.6 25.6 0 0 1-51.2 0v-256a25.6 25.6 0 0 1 25.6-25.6z m-256 0a25.6 25.6 0 0 1 25.6 25.6v256a25.6 25.6 0 0 1-51.2 0v-256a25.6 25.6 0 0 1 25.6-25.6z" fill="#ffffff" p-id="22442"></path></svg>